<svg xmlns="http://www.w3.org/2000/svg" viewBox="0 0 13.597 15.985">
  <defs>
    <style>
      .cls-1 {
        fill: red;
      }
    </style>
  </defs>
  <g style="fill: red;" id="avatar" transform="translate(-36.073)">
    <g id="Group_392" data-name="Group 392" transform="translate(36.073)">
      <path id="Path_117" data-name="Path 117" class="cls-1" d="M140.479,8.613h.106a3.055,3.055,0,0,0,2.334-1.01c1.274-1.437,1.063-3.9,1.039-4.135a3.377,3.377,0,0,0-1.605-3A3.68,3.68,0,0,0,140.571,0h-.056a3.686,3.686,0,0,0-1.781.454,3.379,3.379,0,0,0-1.625,3.016c-.023.235-.235,2.7,1.039,4.135A3.042,3.042,0,0,0,140.479,8.613Zm-2.486-5.061c0-.01,0-.02,0-.026A2.408,2.408,0,0,1,140.512.9h.04a2.42,2.42,0,0,1,2.516,2.628.065.065,0,0,0,0,.026c0,.023.235,2.274-.818,3.459a2.17,2.17,0,0,1-1.7.708h-.033a2.162,2.162,0,0,1-1.7-.708C137.764,5.833,137.989,3.572,137.993,3.552Z" transform="translate(-133.738)"/>
      <path id="Path_118" data-name="Path 118" class="cls-1" d="M49.669,263.361v-.01c0-.026,0-.053,0-.083-.02-.655-.063-2.188-1.5-2.678l-.033-.01a9.552,9.552,0,0,1-2.748-1.251.447.447,0,1,0-.513.732,10.31,10.31,0,0,0,3.022,1.38c.771.275.857,1.1.881,1.854a.665.665,0,0,0,0,.083,6.008,6.008,0,0,1-.07,1.023,12.183,12.183,0,0,1-5.836,1.357,12.253,12.253,0,0,1-5.839-1.361,5.688,5.688,0,0,1-.07-1.023c0-.026,0-.053,0-.083.023-.755.109-1.579.881-1.854a10.407,10.407,0,0,0,3.022-1.38.447.447,0,0,0-.513-.732,9.446,9.446,0,0,1-2.748,1.251l-.033.01c-1.437.493-1.48,2.026-1.5,2.678a.665.665,0,0,1,0,.083v.01a5.076,5.076,0,0,0,.169,1.5.425.425,0,0,0,.172.209,12.521,12.521,0,0,0,6.462,1.582,12.559,12.559,0,0,0,6.462-1.582.443.443,0,0,0,.172-.209A5.326,5.326,0,0,0,49.669,263.361Z" transform="translate(-36.073 -250.662)"/>
    </g>
  </g>
</svg>
