<svg xmlns="http://www.w3.org/2000/svg" viewBox="0 0 28.2 28.2">
  <defs>
    <style>
      .cls-1, .cls-2 {
        fill: #fff;
      }

      .cls-2 {
        stroke: #fff;
        stroke-width: 0.5px;
      }
    </style>
  </defs>
  <g id="Group_422" data-name="Group 422" transform="translate(-612.3 -900.3)">
    <g id="Group_219" data-name="Group 219" transform="translate(602 890)">
      <g id="Group_217" data-name="Group 217">
        <g id="Group_216" data-name="Group 216">
          <path id="Path_100" data-name="Path 100" class="cls-1" d="M24.4,10.3A14.1,14.1,0,1,0,38.5,24.4,14.084,14.084,0,0,0,24.4,10.3Zm0,26.1a12,12,0,1,1,12-12A12.035,12.035,0,0,1,24.4,36.4Z"/>
        </g>
      </g>
    </g>
    <g id="cup" transform="translate(586.612 908.301)">
      <g id="Group_227" data-name="Group 227" transform="translate(-1.503 -0.582)">
        <g id="Group_224" data-name="Group 224" transform="translate(34.89)">
          <g id="Group_223" data-name="Group 223" transform="translate(0)">
            <path id="Path_102" data-name="Path 102" class="cls-2" d="M46.967,1.89h-1.8V.32a.32.32,0,0,0-.32-.32H37.334a.32.32,0,0,0-.32.32V1.89h-1.8a.32.32,0,0,0-.32.32,3.648,3.648,0,0,0,2.229,3.353,4.089,4.089,0,0,0,2.953,3.023,1.532,1.532,0,0,1-1.185,1.61l-.009,0-.02.005-.013,0-.016.006-.015.007-.012.006-.016.01-.01.006-.016.012-.008.006-.015.014-.008.007-.013.014-.008.009-.011.015-.007.011-.009.015-.007.012-.007.015-.006.013-.006.017,0,.012c0,.007,0,.013-.005.02l0,.01c0,.008,0,.016,0,.024v.007c0,.009,0,.018,0,.027s0,0,0,0v0s-1.217,1.1-1.217,1.279v2.243a.32.32,0,0,0,.32.32h6.728a.32.32,0,0,0,.32-.32V11.79a11.086,11.086,0,0,0-1.3-1.5h0l-.02-.019,0,0-.02-.016,0,0-.021-.014,0,0-.024-.012,0,0-.026-.01h0l-.028-.008h0a1.531,1.531,0,0,1-1.185-1.618,4.089,4.089,0,0,0,2.921-3.013,3.648,3.648,0,0,0,2.231-3.354A.32.32,0,0,0,46.967,1.89Zm-11.418.641h1.465v2.12s0,0,0,0c0,.048,0,.1,0,.143A3.009,3.009,0,0,1,35.548,2.531Zm8.6,9.58v1.6H38.06v-1.6Zm.374-7.471a3.434,3.434,0,1,1-6.867,0v-4h6.867v4Zm.637.159q0-.072,0-.144s0,0,0,0V2.531h1.467A3.009,3.009,0,0,1,45.159,4.8Z" transform="translate(-34.89)"/>
          </g>
        </g>
      </g>
    </g>
  </g>
</svg>
