<svg xmlns="http://www.w3.org/2000/svg" viewBox="0 0 14 13.125">
  <defs>
    <style>
      .cls-1 {
        fill: red;
      }
    </style>
  </defs>
  <path id="Path_97" data-name="Path 97" class="cls-1" d="M13.973-11.43A.9.9,0,0,0,13.7-12a.787.787,0,0,0-.574-.246H.875A.787.787,0,0,0,.3-12a.9.9,0,0,0-.273.574H0V0A.841.841,0,0,0,.26.615a.841.841,0,0,0,.615.26h12.25a.841.841,0,0,0,.615-.26A.841.841,0,0,0,14,0V-11.43ZM5.25-7V-9.625h3.5V-7Zm3.5.875v2.707H5.25V-6.125Zm-4.375-3.5V-7H.875V-9.625Zm-3.5,3.5h3.5v2.707H.875ZM.875,0V-2.625h3.5V0ZM5.25,0V-2.625h3.5V0Zm7.875,0h-3.5V-2.625h3.5Zm0-3.418h-3.5V-6.125h3.5Zm0-3.582h-3.5V-9.625h3.5Z" transform="translate(0 12.25)"/>
</svg>
