<svg xmlns="http://www.w3.org/2000/svg" viewBox="0 0 10.855 13.817">
  <defs>
    <style>
      .cls-1 {
        fill: red;
      }
    </style>
  </defs>
  <g style="fill: red;" id="Group_154" data-name="Group 154" transform="translate(0 0)">
    <path id="Path_52" data-name="Path 52" class="cls-1" d="M56.511,1.81h-1.25V1.251c0-.181-.2-.263-.378-.263h-.97A1.471,1.471,0,0,0,52.448,0a1.5,1.5,0,0,0-1.464.987H50.03c-.181,0-.362.082-.362.263V1.81h-1.25a1.4,1.4,0,0,0-1.382,1.332v9.424a1.323,1.323,0,0,0,1.382,1.25h8.092a1.323,1.323,0,0,0,1.382-1.25V3.143A1.4,1.4,0,0,0,56.511,1.81Zm-6.184-.164h.9a.362.362,0,0,0,.313-.3.954.954,0,0,1,.9-.74.937.937,0,0,1,.888.74.362.362,0,0,0,.329.3H54.6V2.962H50.326Zm6.908,10.921a.667.667,0,0,1-.724.592H48.419a.667.667,0,0,1-.724-.592V3.143a.74.74,0,0,1,.724-.674h1.25v.839a.345.345,0,0,0,.362.313h4.852a.362.362,0,0,0,.378-.313V2.468h1.25a.74.74,0,0,1,.724.674v9.424Z" transform="translate(-47.037 0)"/>
    <path id="Path_53" data-name="Path 53" class="cls-1" d="M101.894,230.414a.329.329,0,0,0-.461-.016l-1.053,1-.444-.461a.329.329,0,0,0-.461-.016.345.345,0,0,0,0,.477l.674.691a.3.3,0,0,0,.23.1.329.329,0,0,0,.23-.1l1.283-1.217a.312.312,0,0,0,.019-.442Z" transform="translate(-97.733 -223.061)"/>
    <path id="Path_54" data-name="Path 54" class="cls-1" d="M202.66,256.034h-3.783a.329.329,0,1,0,0,.658h3.783a.329.329,0,0,0,0-.658Z" transform="translate(-193.778 -247.974)"/>
    <path id="Path_55" data-name="Path 55" class="cls-1" d="M101.894,146.822a.329.329,0,0,0-.461-.016l-1.053,1-.444-.461a.329.329,0,0,0-.461-.016.345.345,0,0,0,0,.477l.674.691a.3.3,0,0,0,.23.1.329.329,0,0,0,.23-.1l1.283-1.217a.312.312,0,0,0,.019-.442Z" transform="translate(-97.733 -142.101)"/>
    <path id="Path_56" data-name="Path 56" class="cls-1" d="M202.66,172.442h-3.783a.329.329,0,1,0,0,.658h3.783a.329.329,0,0,0,0-.658Z" transform="translate(-193.778 -167.013)"/>
    <path id="Path_57" data-name="Path 57" class="cls-1" d="M101.894,314.005a.329.329,0,0,0-.461-.016l-1.053,1-.444-.461a.329.329,0,0,0-.461-.016.345.345,0,0,0,0,.477l.674.691a.3.3,0,0,0,.23.1.329.329,0,0,0,.23-.1l1.283-1.217a.312.312,0,0,0,.019-.441Z" transform="translate(-97.733 -304.021)"/>
    <path id="Path_58" data-name="Path 58" class="cls-1" d="M202.66,339.626h-3.783a.329.329,0,1,0,0,.658h3.783a.329.329,0,1,0,0-.658Z" transform="translate(-193.778 -328.934)"/>
  </g>
</svg>
