<svg xmlns="http://www.w3.org/2000/svg" viewBox="0 0 12.782 10.09">
  <g id="email_2_" data-name="email (2)" transform="translate(0 0)">
    <g id="Group_80" data-name="Group 80">
      <path id="Path_37" data-name="Path 37" d="M11.659,61H1.123A1.146,1.146,0,0,0,0,62.164v7.761A1.146,1.146,0,0,0,1.123,71.09H11.659a1.146,1.146,0,0,0,1.123-1.164V62.164A1.146,1.146,0,0,0,11.659,61Zm-.155.776L6.415,67.049,1.282,61.776ZM.749,69.765V62.321l3.607,3.706Zm.53.549,3.609-3.74,1.265,1.3a.365.365,0,0,0,.528,0l1.233-1.278,3.59,3.72Zm10.755-.549-3.59-3.72,3.59-3.72Z" transform="translate(0 -61)"/>
    </g>
  </g>
</svg>
