<svg id="fax" xmlns="http://www.w3.org/2000/svg" viewBox="0 0 12.782 12.782">
  <defs>
  </defs>
  <g id="Group_59" data-name="Group 59">
    <g id="Group_58" data-name="Group 58">
      <path id="Path_26" data-name="Path 26" class="cls-1" d="M11.659,2.272H10.535V.374A.374.374,0,0,0,10.161,0H6.416a.374.374,0,0,0-.374.374v1.9H4.429A1.125,1.125,0,0,0,3.37,1.523H2.621a1.125,1.125,0,0,0-1.059.749H1.123A1.125,1.125,0,0,0,0,3.4V10.91a1.125,1.125,0,0,0,1.123,1.123h.439a1.125,1.125,0,0,0,1.059.749H3.37a1.125,1.125,0,0,0,1.059-.749h7.229a1.125,1.125,0,0,0,1.123-1.123V3.4A1.125,1.125,0,0,0,11.659,2.272ZM1.5,11.284H1.123a.375.375,0,0,1-.374-.374V3.4a.375.375,0,0,1,.374-.374H1.5Zm2.247.374a.375.375,0,0,1-.374.374H2.621a.375.375,0,0,1-.374-.374V2.646a.375.375,0,0,1,.374-.374H3.37a.375.375,0,0,1,.374.374ZM6.791.749h3V3.77h-3ZM12.033,10.91a.375.375,0,0,1-.374.374H4.494V3.021H6.042V3.77H5.667a.374.374,0,1,0,0,.749H10.91a.374.374,0,1,0,0-.749h-.374V3.021h1.123a.375.375,0,0,1,.374.374Z"/>
    </g>
  </g>
  <g id="Group_61" data-name="Group 61" transform="translate(7.54 2.272)">
    <g id="Group_60" data-name="Group 60">
      <path id="Path_27" data-name="Path 27" class="cls-1" d="M303.123,91h-.749a.374.374,0,0,0,0,.749h.749a.374.374,0,1,0,0-.749Z" transform="translate(-302 -91)"/>
    </g>
  </g>
  <g id="Group_63" data-name="Group 63" transform="translate(5.293 6.017)">
    <g id="Group_62" data-name="Group 62">
      <path id="Path_28" data-name="Path 28" class="cls-1" d="M213.123,241h-.749a.374.374,0,1,0,0,.749h.749a.374.374,0,1,0,0-.749Z" transform="translate(-212 -241)"/>
    </g>
  </g>
  <g id="Group_65" data-name="Group 65" transform="translate(7.54 6.017)">
    <g id="Group_64" data-name="Group 64">
      <path id="Path_29" data-name="Path 29" class="cls-1" d="M303.123,241h-.749a.374.374,0,0,0,0,.749h.749a.374.374,0,1,0,0-.749Z" transform="translate(-302 -241)"/>
    </g>
  </g>
  <g id="Group_67" data-name="Group 67" transform="translate(9.786 6.017)">
    <g id="Group_66" data-name="Group 66">
      <path id="Path_30" data-name="Path 30" class="cls-1" d="M393.123,241h-.749a.374.374,0,1,0,0,.749h.749a.374.374,0,1,0,0-.749Z" transform="translate(-392 -241)"/>
    </g>
  </g>
  <g id="Group_69" data-name="Group 69" transform="translate(5.293 7.515)">
    <g id="Group_68" data-name="Group 68">
      <path id="Path_31" data-name="Path 31" class="cls-1" d="M213.123,301h-.749a.374.374,0,1,0,0,.749h.749a.374.374,0,1,0,0-.749Z" transform="translate(-212 -301)"/>
    </g>
  </g>
  <g id="Group_71" data-name="Group 71" transform="translate(7.54 7.515)">
    <g id="Group_70" data-name="Group 70">
      <path id="Path_32" data-name="Path 32" class="cls-1" d="M303.123,301h-.749a.374.374,0,0,0,0,.749h.749a.374.374,0,1,0,0-.749Z" transform="translate(-302 -301)"/>
    </g>
  </g>
  <g id="Group_73" data-name="Group 73" transform="translate(9.786 7.515)">
    <g id="Group_72" data-name="Group 72">
      <path id="Path_33" data-name="Path 33" class="cls-1" d="M393.123,301h-.749a.374.374,0,1,0,0,.749h.749a.374.374,0,1,0,0-.749Z" transform="translate(-392 -301)"/>
    </g>
  </g>
  <g id="Group_75" data-name="Group 75" transform="translate(5.293 9.012)">
    <g id="Group_74" data-name="Group 74">
      <path id="Path_34" data-name="Path 34" class="cls-1" d="M213.123,361h-.749a.374.374,0,0,0,0,.749h.749a.374.374,0,1,0,0-.749Z" transform="translate(-212 -361)"/>
    </g>
  </g>
  <g id="Group_77" data-name="Group 77" transform="translate(7.54 9.012)">
    <g id="Group_76" data-name="Group 76">
      <path id="Path_35" data-name="Path 35" class="cls-1" d="M303.123,361h-.749a.374.374,0,0,0,0,.749h.749a.374.374,0,1,0,0-.749Z" transform="translate(-302 -361)"/>
    </g>
  </g>
  <g id="Group_79" data-name="Group 79" transform="translate(9.786 9.012)">
    <g id="Group_78" data-name="Group 78">
      <path id="Path_36" data-name="Path 36" class="cls-1" d="M393.123,361h-.749a.374.374,0,1,0,0,.749h.749a.374.374,0,0,0,0-.749Z" transform="translate(-392 -361)"/>
    </g>
  </g>
</svg>
