<svg xmlns="http://www.w3.org/2000/svg" viewBox="0 0 17.154 27.163">
  <defs>
    <style>
      .cls-1 {
        fill: #1e201d;
      }
    </style>
  </defs>
  <path id="ic-location" class="cls-1" d="M16.661,0a8.592,8.592,0,0,1,8.572,8.582c0,2.4-1.543,5.289-2.89,7.816-.413.767-.806,1.5-1.12,2.163l-3.942,8.209a.693.693,0,0,1-1.249,0h0L12.09,18.56c-.315-.658-.708-1.4-1.111-2.163-1.356-2.526-2.9-5.417-2.9-7.816A8.592,8.592,0,0,1,16.661,0Zm0,4.375A4.2,4.2,0,1,1,13.683,5.6a4.19,4.19,0,0,1,2.979-1.229Zm1.986,2.212a2.813,2.813,0,1,0,.826,2,2.793,2.793,0,0,0-.826-2Zm3.1-3.087A7.2,7.2,0,0,0,9.465,8.582c0,2.064,1.455,4.778,2.733,7.167.413.777.806,1.524,1.14,2.212l3.323,6.911,3.313-6.911c.334-.688.728-1.435,1.14-2.212,1.278-2.389,2.733-5.1,2.733-7.167a7.164,7.164,0,0,0-2.1-5.082Z" transform="translate(-8.079)"/>
</svg>
