<svg xmlns="http://www.w3.org/2000/svg" viewBox="0 0 12.694 12.55">
  <defs>
    <style>
      .cls-1 {
        fill: #363636;
      }
    </style>
  </defs>
  <g id="linkedin-social-outline-logotype" transform="translate(0 -3.477)">
    <g id="linkedin" transform="translate(0 3.477)">
      <g id="Group_420" data-name="Group 420">
        <path id="Path_127" data-name="Path 127" class="cls-1" d="M2.771,6.983H.366a.3.3,0,0,0-.3.3v8.406a.3.3,0,0,0,.3.3h2.4a.3.3,0,0,0,.3-.3V7.28A.3.3,0,0,0,2.771,6.983Zm-.3,8.406H.664V7.578H2.473Zm7-8.508A3.287,3.287,0,0,0,7.1,7.822l-.055-.571a.3.3,0,0,0-.3-.269H6.743l-2.192.042a.3.3,0,0,0-.292.311c.027.614.027,1.331.025,2.162v6.231a.3.3,0,0,0,.3.3h2.4a.3.3,0,0,0,.3-.3V10.869a1.588,1.588,0,0,1,.064-.535,1.359,1.359,0,0,1,1.212-.776c.736,0,1.174.56,1.174,1.5v4.673a.3.3,0,0,0,.3.3H12.4a.3.3,0,0,0,.3-.3V10.751C12.694,8.327,11.491,6.88,9.475,6.88ZM12.1,15.431H10.331V11.056c0-1.272-.7-2.093-1.77-2.093a1.964,1.964,0,0,0-1.766,1.153,2.057,2.057,0,0,0-.106.754v4.561H4.88V9.5c0-.706,0-1.33-.015-1.884l1.613-.031.093.961a.3.3,0,0,0,.3.269h.051a.3.3,0,0,0,.253-.14,2.657,2.657,0,0,1,2.3-1.2c1.667,0,2.623,1.194,2.623,3.275v4.68h0ZM1.669,3.477A1.575,1.575,0,0,0,0,5.062,1.558,1.558,0,0,0,1.636,6.646a1.587,1.587,0,1,0,.033-3.169ZM1.636,6.05a.991.991,0,1,1,.033-1.977.976.976,0,0,1,1.057.989A.987.987,0,0,1,1.636,6.05Z" transform="translate(0 -3.477)"/>
      </g>
    </g>
  </g>
</svg>
