<svg xmlns="http://www.w3.org/2000/svg" viewBox="0 0 15.239 15">
  <defs>
    <style>
      .cls-1 {
        fill: red;
      }
    </style>
  </defs>
  <g style="fill: red;" id="money_1_" data-name="money (1)" transform="translate(0 -4.008)">
    <g id="Group_257" data-name="Group 257" transform="translate(1.963 10.341)">
      <g id="Group_256" data-name="Group 256">
        <path id="Path_106" data-name="Path 106" class="cls-1" d="M60.942,226.142a.249.249,0,0,0,.249-.249v-.172a.767.767,0,0,0-.69-.762v-.272a.249.249,0,1,0-.5,0v.284a.852.852,0,0,0,.162,1.688h.172a.355.355,0,0,1,0,.709H60.08a.269.269,0,0,1-.269-.269.249.249,0,0,0-.5,0,.767.767,0,0,0,.69.762v.272a.249.249,0,0,0,.5,0v-.284a.852.852,0,0,0-.162-1.688h-.172a.355.355,0,0,1,0-.709h.259a.269.269,0,0,1,.269.269v.172A.249.249,0,0,0,60.942,226.142Z" transform="translate(-59.314 -224.438)"/>
      </g>
    </g>
    <g id="Group_259" data-name="Group 259" transform="translate(6.681 4.936)">
      <g id="Group_258" data-name="Group 258" transform="translate(0 0)">
        <path id="Path_107" data-name="Path 107" class="cls-1" d="M229.271,33.766a.249.249,0,0,0,.249-.249v-.172a.767.767,0,0,0-.69-.762v-.272a.249.249,0,1,0-.5,0v.284a.852.852,0,0,0,.162,1.688h.172a.355.355,0,0,1,0,.709h-.259a.269.269,0,0,1-.269-.269.249.249,0,0,0-.5,0,.767.767,0,0,0,.69.762v.272a.249.249,0,0,0,.5,0v-.284a.852.852,0,0,0-.162-1.688H228.5a.355.355,0,0,1,0-.709h.259a.269.269,0,0,1,.269.269v.172A.249.249,0,0,0,229.271,33.766Z" transform="translate(-227.643 -32.062)"/>
      </g>
    </g>
    <g id="Group_261" data-name="Group 261" transform="translate(0 4.008)">
      <g id="Group_260" data-name="Group 260">
        <path id="Path_108" data-name="Path 108" class="cls-1" d="M12.629,8.124a2.665,2.665,0,0,0-1.7.6L9.827,7.841a2.411,2.411,0,0,0,.4-1.332,2.56,2.56,0,0,0-2.609-2.5,2.56,2.56,0,0,0-2.609,2.5,2.449,2.449,0,0,0,.837,1.834L4.023,9.9a2.676,2.676,0,0,0-1.414-.4,2.5,2.5,0,1,0,0,5A2.56,2.56,0,0,0,5.219,12a2.449,2.449,0,0,0-.837-1.834L6.205,8.611a2.689,2.689,0,0,0,3.351-.427l1.063.849a2.428,2.428,0,0,0-.6,1.593,2.612,2.612,0,0,0,5.219,0A2.56,2.56,0,0,0,12.629,8.124ZM4.771,12A2.121,2.121,0,0,1,2.609,14.07a2.074,2.074,0,1,1,0-4.145A2.121,2.121,0,0,1,4.771,12ZM7.619,8.582A2.121,2.121,0,0,1,5.457,6.509,2.121,2.121,0,0,1,7.619,4.437,2.121,2.121,0,0,1,9.781,6.509,2.121,2.121,0,0,1,7.619,8.582Zm5.01,4.116a2.121,2.121,0,0,1-2.162-2.073,2.018,2.018,0,0,1,.569-1.4.223.223,0,0,0,.094-.064.212.212,0,0,0,.038-.063,2.206,2.206,0,0,1,1.46-.546,2.074,2.074,0,1,1,0,4.145Z" transform="translate(0 -4.008)"/>
      </g>
    </g>
    <g id="Group_263" data-name="Group 263" transform="translate(11.399 8.96)">
      <g id="Group_262" data-name="Group 262">
        <path id="Path_109" data-name="Path 109" class="cls-1" d="M397.6,178.048a.249.249,0,0,0,.249-.249v-.172a.767.767,0,0,0-.69-.762v-.272a.249.249,0,1,0-.5,0v.284a.852.852,0,0,0,.162,1.688h.172a.355.355,0,1,1,0,.709h-.259a.269.269,0,0,1-.269-.269.249.249,0,0,0-.5,0,.767.767,0,0,0,.69.762v.272a.249.249,0,0,0,.5,0v-.284a.852.852,0,0,0-.162-1.688h-.172a.355.355,0,1,1,0-.709h.259a.269.269,0,0,1,.269.269v.172A.249.249,0,0,0,397.6,178.048Z" transform="translate(-395.97 -176.344)"/>
      </g>
    </g>
    <g id="Group_265" data-name="Group 265" transform="translate(2.571 15.328)">
      <g id="Group_264" data-name="Group 264">
        <path id="Path_110" data-name="Path 110" class="cls-1" d="M90.542,396.775H88.421a.249.249,0,0,0-.249.249v3.183a.249.249,0,0,0,.249.249h2.122a.249.249,0,0,0,.249-.249v-3.183A.249.249,0,0,0,90.542,396.775Zm-.249,3.183H88.669v-2.685h1.624Z" transform="translate(-88.172 -396.775)"/>
      </g>
    </g>
    <g id="Group_267" data-name="Group 267" transform="translate(11.559 15.328)">
      <g id="Group_266" data-name="Group 266">
        <path id="Path_111" data-name="Path 111" class="cls-1" d="M403.153,396.775h-2.122a.249.249,0,0,0-.249.249v3.183a.249.249,0,0,0,.249.249h2.122a.249.249,0,0,0,.249-.249v-3.183A.249.249,0,0,0,403.153,396.775Zm-.249,3.183H401.28v-2.685H402.9Z" transform="translate(-400.783 -396.775)"/>
      </g>
    </g>
    <g id="Group_269" data-name="Group 269" transform="translate(5.609 12.145)">
      <g id="Group_268" data-name="Group 268">
        <path id="Path_112" data-name="Path 112" class="cls-1" d="M194.745,304.814a.249.249,0,0,0,.249-.249v-3.73a.249.249,0,0,0-.249-.249h-2.122a.249.249,0,0,0-.249.249V307.2a.249.249,0,0,0,.249.249h2.122a.249.249,0,0,0,.249-.249v-1.475a.249.249,0,0,0-.5,0v1.227h-1.624v-5.868H194.5v3.481A.249.249,0,0,0,194.745,304.814Z" transform="translate(-192.375 -300.587)"/>
      </g>
    </g>
    <g id="Group_271" data-name="Group 271" transform="translate(8.647 13.737)">
      <g id="Group_270" data-name="Group 270">
        <path id="Path_113" data-name="Path 113" class="cls-1" d="M298.949,348.681h-2.122a.249.249,0,0,0-.249.249V353.7a.249.249,0,0,0,.249.249h2.122a.249.249,0,0,0,.249-.249V348.93A.249.249,0,0,0,298.949,348.681Zm-.249,4.774h-1.625v-4.277H298.7Z" transform="translate(-296.579 -348.681)"/>
      </g>
    </g>
  </g>
</svg>
