<svg xmlns="http://www.w3.org/2000/svg" viewBox="0 0 21.047 25.256">
  <defs>
    <style>
      .cls-1 {
        fill: #363636;
      }
    </style>
  </defs>
  <g id="newspaper_5_" data-name="newspaper (5)" transform="translate(-40)">
    <g id="Group_302" data-name="Group 302" transform="translate(40)">
      <g id="Group_301" data-name="Group 301" transform="translate(0)">
        <path id="Path_114" data-name="Path 114" class="cls-1" d="M58.942,0H43.788a2.1,2.1,0,0,0-2.066,1.722A2.1,2.1,0,0,0,40,3.788V23.152a2.107,2.107,0,0,0,2.1,2.1H57.258a2.1,2.1,0,0,0,2.066-1.722,2.1,2.1,0,0,0,1.722-2.066V2.1A2.107,2.107,0,0,0,58.942,0Zm-.421,23.152a1.264,1.264,0,0,1-1.263,1.263H42.1a1.264,1.264,0,0,1-1.263-1.263V3.788A1.264,1.264,0,0,1,42.1,2.526H54.733V5.893a.421.421,0,0,0,.421.421h3.368ZM55.575,5.472V3.121l2.351,2.351Zm4.63,16a1.261,1.261,0,0,1-.842,1.185V5.893a.42.42,0,0,0-.124-.3L55.452,1.808a.421.421,0,0,0-.3-.124H42.6A1.261,1.261,0,0,1,43.788.842H58.942A1.264,1.264,0,0,1,60.205,2.1Z" transform="translate(-40)"/>
      </g>
    </g>
    <g id="Group_304" data-name="Group 304" transform="translate(47.577 3.788)">
      <g id="Group_303" data-name="Group 303" transform="translate(0)">
        <path id="Path_115" data-name="Path 115" class="cls-1" d="M186.1,72a2.1,2.1,0,1,0,2.1,2.1A2.107,2.107,0,0,0,186.1,72Zm0,3.368a1.263,1.263,0,1,1,1.263-1.263A1.264,1.264,0,0,1,186.1,75.368Z" transform="translate(-184 -72)"/>
      </g>
    </g>
    <g id="Group_306" data-name="Group 306" transform="translate(42.105 9.261)">
      <g id="Group_305" data-name="Group 305" transform="translate(0)">
        <rect id="Rectangle_97" data-name="Rectangle 97" class="cls-1" width="4.209" height="0.842"/>
      </g>
    </g>
    <g id="Group_308" data-name="Group 308" transform="translate(47.577 9.261)">
      <g id="Group_307" data-name="Group 307" transform="translate(0)">
        <rect id="Rectangle_98" data-name="Rectangle 98" class="cls-1" width="1.263" height="0.842"/>
      </g>
    </g>
    <g id="Group_310" data-name="Group 310" transform="translate(50.523 9.261)">
      <g id="Group_309" data-name="Group 309" transform="translate(0)">
        <rect id="Rectangle_99" data-name="Rectangle 99" class="cls-1" width="4.209" height="0.842"/>
      </g>
    </g>
    <g id="Group_312" data-name="Group 312" transform="translate(55.996 9.261)">
      <g id="Group_311" data-name="Group 311">
        <rect id="Rectangle_100" data-name="Rectangle 100" class="cls-1" width="1.263" height="0.842"/>
      </g>
    </g>
    <g id="Group_314" data-name="Group 314" transform="translate(42.105 10.944)">
      <g id="Group_313" data-name="Group 313" transform="translate(0)">
        <rect id="Rectangle_101" data-name="Rectangle 101" class="cls-1" width="4.209" height="0.842"/>
      </g>
    </g>
    <g id="Group_316" data-name="Group 316" transform="translate(47.577 10.944)">
      <g id="Group_315" data-name="Group 315" transform="translate(0)">
        <rect id="Rectangle_102" data-name="Rectangle 102" class="cls-1" width="1.263" height="0.842"/>
      </g>
    </g>
    <g id="Group_318" data-name="Group 318" transform="translate(50.523 10.944)">
      <g id="Group_317" data-name="Group 317" transform="translate(0)">
        <rect id="Rectangle_103" data-name="Rectangle 103" class="cls-1" width="4.209" height="0.842"/>
      </g>
    </g>
    <g id="Group_320" data-name="Group 320" transform="translate(55.996 10.944)">
      <g id="Group_319" data-name="Group 319">
        <rect id="Rectangle_104" data-name="Rectangle 104" class="cls-1" width="1.263" height="0.842"/>
      </g>
    </g>
    <g id="Group_322" data-name="Group 322" transform="translate(42.105 12.628)">
      <g id="Group_321" data-name="Group 321" transform="translate(0)">
        <rect id="Rectangle_105" data-name="Rectangle 105" class="cls-1" width="4.209" height="0.842"/>
      </g>
    </g>
    <g id="Group_324" data-name="Group 324" transform="translate(47.577 12.628)">
      <g id="Group_323" data-name="Group 323" transform="translate(0)">
        <rect id="Rectangle_106" data-name="Rectangle 106" class="cls-1" width="1.263" height="0.842"/>
      </g>
    </g>
    <g id="Group_326" data-name="Group 326" transform="translate(50.523 12.628)">
      <g id="Group_325" data-name="Group 325" transform="translate(0)">
        <rect id="Rectangle_107" data-name="Rectangle 107" class="cls-1" width="4.209" height="0.842"/>
      </g>
    </g>
    <g id="Group_328" data-name="Group 328" transform="translate(55.996 12.628)">
      <g id="Group_327" data-name="Group 327">
        <rect id="Rectangle_108" data-name="Rectangle 108" class="cls-1" width="1.263" height="0.842"/>
      </g>
    </g>
    <g id="Group_330" data-name="Group 330" transform="translate(42.105 14.312)">
      <g id="Group_329" data-name="Group 329" transform="translate(0)">
        <rect id="Rectangle_109" data-name="Rectangle 109" class="cls-1" width="4.209" height="0.842"/>
      </g>
    </g>
    <g id="Group_332" data-name="Group 332" transform="translate(47.577 14.312)">
      <g id="Group_331" data-name="Group 331" transform="translate(0)">
        <rect id="Rectangle_110" data-name="Rectangle 110" class="cls-1" width="1.263" height="0.842"/>
      </g>
    </g>
    <g id="Group_334" data-name="Group 334" transform="translate(50.523 14.312)">
      <g id="Group_333" data-name="Group 333" transform="translate(0)">
        <rect id="Rectangle_111" data-name="Rectangle 111" class="cls-1" width="4.209" height="0.842"/>
      </g>
    </g>
    <g id="Group_336" data-name="Group 336" transform="translate(55.996 14.312)">
      <g id="Group_335" data-name="Group 335">
        <rect id="Rectangle_112" data-name="Rectangle 112" class="cls-1" width="1.263" height="0.842"/>
      </g>
    </g>
    <g id="Group_338" data-name="Group 338" transform="translate(42.105 16.837)">
      <g id="Group_337" data-name="Group 337" transform="translate(0)">
        <rect id="Rectangle_113" data-name="Rectangle 113" class="cls-1" width="4.209" height="0.842"/>
      </g>
    </g>
    <g id="Group_340" data-name="Group 340" transform="translate(47.577 16.837)">
      <g id="Group_339" data-name="Group 339" transform="translate(0)">
        <rect id="Rectangle_114" data-name="Rectangle 114" class="cls-1" width="1.263" height="0.842"/>
      </g>
    </g>
    <g id="Group_342" data-name="Group 342" transform="translate(50.523 16.837)">
      <g id="Group_341" data-name="Group 341" transform="translate(0)">
        <rect id="Rectangle_115" data-name="Rectangle 115" class="cls-1" width="4.209" height="0.842"/>
      </g>
    </g>
    <g id="Group_344" data-name="Group 344" transform="translate(55.996 16.837)">
      <g id="Group_343" data-name="Group 343">
        <rect id="Rectangle_116" data-name="Rectangle 116" class="cls-1" width="1.263" height="0.842"/>
      </g>
    </g>
    <g id="Group_346" data-name="Group 346" transform="translate(42.105 18.521)">
      <g id="Group_345" data-name="Group 345" transform="translate(0)">
        <rect id="Rectangle_117" data-name="Rectangle 117" class="cls-1" width="4.209" height="0.842"/>
      </g>
    </g>
    <g id="Group_348" data-name="Group 348" transform="translate(47.577 18.521)">
      <g id="Group_347" data-name="Group 347" transform="translate(0)">
        <rect id="Rectangle_118" data-name="Rectangle 118" class="cls-1" width="1.263" height="0.842"/>
      </g>
    </g>
    <g id="Group_350" data-name="Group 350" transform="translate(50.523 18.521)">
      <g id="Group_349" data-name="Group 349" transform="translate(0)">
        <rect id="Rectangle_119" data-name="Rectangle 119" class="cls-1" width="4.209" height="0.842"/>
      </g>
    </g>
    <g id="Group_352" data-name="Group 352" transform="translate(55.996 18.521)">
      <g id="Group_351" data-name="Group 351">
        <rect id="Rectangle_120" data-name="Rectangle 120" class="cls-1" width="1.263" height="0.842"/>
      </g>
    </g>
    <g id="Group_354" data-name="Group 354" transform="translate(42.105 20.205)">
      <g id="Group_353" data-name="Group 353" transform="translate(0)">
        <rect id="Rectangle_121" data-name="Rectangle 121" class="cls-1" width="4.209" height="0.842"/>
      </g>
    </g>
    <g id="Group_356" data-name="Group 356" transform="translate(47.577 20.205)">
      <g id="Group_355" data-name="Group 355" transform="translate(0)">
        <rect id="Rectangle_122" data-name="Rectangle 122" class="cls-1" width="1.263" height="0.842"/>
      </g>
    </g>
    <g id="Group_358" data-name="Group 358" transform="translate(50.523 20.205)">
      <g id="Group_357" data-name="Group 357" transform="translate(0)">
        <rect id="Rectangle_123" data-name="Rectangle 123" class="cls-1" width="4.209" height="0.842"/>
      </g>
    </g>
    <g id="Group_360" data-name="Group 360" transform="translate(55.996 20.205)">
      <g id="Group_359" data-name="Group 359">
        <rect id="Rectangle_124" data-name="Rectangle 124" class="cls-1" width="1.263" height="0.842"/>
      </g>
    </g>
    <g id="Group_362" data-name="Group 362" transform="translate(42.105 21.889)">
      <g id="Group_361" data-name="Group 361" transform="translate(0)">
        <rect id="Rectangle_125" data-name="Rectangle 125" class="cls-1" width="4.209" height="0.842"/>
      </g>
    </g>
    <g id="Group_364" data-name="Group 364" transform="translate(47.577 21.889)">
      <g id="Group_363" data-name="Group 363" transform="translate(0)">
        <rect id="Rectangle_126" data-name="Rectangle 126" class="cls-1" width="1.263" height="0.842"/>
      </g>
    </g>
    <g id="Group_366" data-name="Group 366" transform="translate(50.523 21.889)">
      <g id="Group_365" data-name="Group 365" transform="translate(0)">
        <rect id="Rectangle_127" data-name="Rectangle 127" class="cls-1" width="4.209" height="0.842"/>
      </g>
    </g>
    <g id="Group_368" data-name="Group 368" transform="translate(55.996 21.889)">
      <g id="Group_367" data-name="Group 367">
        <rect id="Rectangle_128" data-name="Rectangle 128" class="cls-1" width="1.263" height="0.842"/>
      </g>
    </g>
  </g>
</svg>
