<svg xmlns="http://www.w3.org/2000/svg" viewBox="0 0 20.024 20">
  <defs>
    <style>
      .cls-1 {
        fill: #474747;
      }
    </style>
  </defs>
  <g id="Group_165" data-name="Group 165" transform="translate(0.038)">
    <g id="Pencil_1_" transform="translate(-0.038)">
      <g id="Group_164" data-name="Group 164">
        <path id="Path_66" data-name="Path 66" class="cls-1" d="M18.891,1.078A3.645,3.645,0,0,0,16.3,0a3.686,3.686,0,0,0-2.609,1.078L2.647,12.052a.448.448,0,0,0-.139.226L0,19.165a.593.593,0,0,0,.139.643A.632.632,0,0,0,.6,20a.74.74,0,0,0,.191-.035l6.226-1.913a.655.655,0,0,0,.261-.157L18.908,6.261A3.645,3.645,0,0,0,19.986,3.67,3.737,3.737,0,0,0,18.891,1.078ZM6.282,16.974l-2.33.713a2.7,2.7,0,0,0-.643-1.043,3.785,3.785,0,0,0-.852-.609l1.061-2.922H4.96v1.252a.623.623,0,0,0,.626.626h1.1Zm9.2-9.061L7.865,15.53,8.091,14.5a.613.613,0,0,0-.122-.522.647.647,0,0,0-.487-.226H6.23V12.5a.623.623,0,0,0-.626-.626H4.612l7.426-7.391h0a2.429,2.429,0,1,1,3.443,3.426ZM18,5.391l-.574.591a3.71,3.71,0,0,0-1.061-2.365A3.624,3.624,0,0,0,14,2.557l.591-.574h0A2.435,2.435,0,0,1,18.752,3.7,2.513,2.513,0,0,1,18,5.391Zm-4.1-.209L7.656,11.426a.63.63,0,0,0,0,.887.59.59,0,0,0,.87,0L14.769,6.07a.63.63,0,0,0,0-.887A.609.609,0,0,0,13.9,5.183Z" transform="translate(0.038 0)"/>
      </g>
    </g>
  </g>
</svg>
