<svg xmlns="http://www.w3.org/2000/svg" viewBox="0 0 9.816 13.973">
  <defs>
    <style>
      .cls-1 {
        fill: red;
      }
    </style>
  </defs>
  <path id="Path_69" data-name="Path 69" class="cls-1" d="M5.031,6.41a2.269,2.269,0,0,0,1.627.656A2.2,2.2,0,0,0,8.271,6.4a2.2,2.2,0,0,0,.67-1.613,2.2,2.2,0,0,0-.67-1.613,2.277,2.277,0,0,0-3.227,0,2.2,2.2,0,0,0-.67,1.613A2.269,2.269,0,0,0,5.031,6.41ZM5.66,3.785a1.419,1.419,0,0,1,2,0,1.358,1.358,0,0,1,.41,1A1.4,1.4,0,0,1,6.658,6.191,1.4,1.4,0,0,1,5.25,4.783,1.358,1.358,0,0,1,5.66,3.785Zm.684,9.844a.752.752,0,0,0,.219.191.355.355,0,0,0,.273,0,2.053,2.053,0,0,0,.219-.191q.164-.164.438-.492t1-1.3q.725-.971,1.3-1.914a15.971,15.971,0,0,0,1.094-2.2,8.393,8.393,0,0,0,.629-2.352,3.682,3.682,0,0,0,.055-.6,4.715,4.715,0,0,0-1.436-3.459A4.73,4.73,0,0,0,6.658-.125,4.73,4.73,0,0,0,3.186,1.311,4.715,4.715,0,0,0,1.75,4.77,3.828,3.828,0,0,0,1.8,5.4,8.487,8.487,0,0,0,2.42,7.709,14.113,14.113,0,0,0,3.568,9.965q.643,1.012,1.285,1.859T5.906,13.15A4.058,4.058,0,0,0,6.344,13.629ZM3.8,1.926A3.874,3.874,0,0,1,6.645.75,3.919,3.919,0,0,1,9.5,1.926,3.852,3.852,0,0,1,10.691,4.77a2.964,2.964,0,0,1-.055.52,8.362,8.362,0,0,1-.588,2.2A12.4,12.4,0,0,1,8.859,9.746q-.711,1.066-1.2,1.736T6.7,12.727q-.492-.574-1-1.244T4.484,9.746A13.779,13.779,0,0,1,3.268,7.49a7.833,7.833,0,0,1-.615-2.2q-.027-.3-.027-.52A3.874,3.874,0,0,1,3.8,1.926Z" transform="translate(-1.75 0.125)"/>
</svg>
