<svg xmlns="http://www.w3.org/2000/svg" viewBox="0 0 10.104 16">
  <defs>
    <style>
      .cls-1 {
        fill: #1e201d;
      }
    </style>
  </defs>
  <path id="placeholder" class="cls-1" d="M13.134,0a5.061,5.061,0,0,1,5.049,5.055c0,1.413-.909,3.115-1.7,4.6-.243.452-.475.886-.66,1.274L13.5,15.768a.408.408,0,0,1-.735,0h0l-2.322-4.835c-.185-.388-.417-.822-.654-1.274-.8-1.488-1.708-3.191-1.708-4.6A5.061,5.061,0,0,1,13.134,0Zm0,2.577A2.471,2.471,0,1,1,11.38,3.3a2.468,2.468,0,0,1,1.754-.724Zm1.17,1.3a1.657,1.657,0,1,0,.486,1.175A1.645,1.645,0,0,0,14.3,3.88Zm1.824-1.818A4.239,4.239,0,0,0,8.9,5.055c0,1.216.857,2.814,1.61,4.221.243.457.475.9.672,1.3l1.957,4.071,1.951-4.071c.2-.405.429-.845.672-1.3.753-1.407,1.61-3.005,1.61-4.221a4.22,4.22,0,0,0-1.239-2.994Z" transform="translate(-8.079)"/>
</svg>
