<svg xmlns="http://www.w3.org/2000/svg" viewBox="0 0 18.986 20.141">
  <defs>
    <style>
      .cls-1 {
        fill: red;
      }
    </style>
  </defs>
  <g style="fill: red;" id="share_1_" data-name="share (1)" transform="translate(0)">
    <path id="Path_116" data-name="Path 116" class="cls-1" d="M29.181,12.939a3.6,3.6,0,0,0-2.852,1.405L20.8,11.254a3.613,3.613,0,0,0,.2-1.188,3.534,3.534,0,0,0-.2-1.192l5.529-3.086A3.6,3.6,0,1,0,25.577,3.6a3.516,3.516,0,0,0,.2,1.192L20.257,7.879a3.6,3.6,0,1,0,.008,4.37l5.529,3.091a3.6,3.6,0,1,0,3.387-2.4Zm0-11.806A2.472,2.472,0,1,1,26.71,3.6,2.474,2.474,0,0,1,29.181,1.133ZM17.4,12.538a2.472,2.472,0,1,1,2.472-2.472A2.474,2.474,0,0,1,17.4,12.538Zm11.777,6.47a2.472,2.472,0,1,1,2.472-2.472A2.474,2.474,0,0,1,29.181,19.007Z" transform="translate(-13.8)"/>
  </g>
</svg>
