<svg xmlns="http://www.w3.org/2000/svg" viewBox="0 0 11.688 11.835">
  <defs>
    <style>
      .cls-1 {
        fill: #363636;
      }
    </style>
  </defs>
  <g id="skype-logo" transform="translate(-1.33 0)">
    <path id="Path_124" data-name="Path 124" class="cls-1" d="M8.035,10.676A4.775,4.775,0,0,1,2.54,5.087.416.416,0,0,0,2.5,4.809,2.682,2.682,0,0,1,4.845.832a.416.416,0,1,0,0-.832A3.515,3.515,0,0,0,1.7,5.078,5.606,5.606,0,0,0,8.175,11.5a.416.416,0,0,0-.139-.821Z"/>
    <path id="Path_125" data-name="Path 125" class="cls-1" d="M92.354,13.251a5.674,5.674,0,0,0,.087-.989,5.61,5.61,0,0,0-5.6-5.6,5.668,5.668,0,0,0-.87.067.416.416,0,1,0,.128.822,4.834,4.834,0,0,1,.742-.057,4.777,4.777,0,0,1,4.771,4.771,4.843,4.843,0,0,1-.1.957.416.416,0,0,0,.031.258,2.658,2.658,0,0,1,.25,1.132,2.686,2.686,0,0,1-2.683,2.683.416.416,0,1,0,0,.832,3.519,3.519,0,0,0,3.515-3.515A3.484,3.484,0,0,0,92.354,13.251Z" transform="translate(-79.609 -6.289)"/>
    <path id="Path_126" data-name="Path 126" class="cls-1" d="M73.072,64.494a1.278,1.278,0,0,0-.145-.632,1.224,1.224,0,0,0-.4-.426,2.629,2.629,0,0,0-.628-.286c-.242-.078-.519-.15-.824-.216-.241-.056-.417-.1-.523-.128a1.7,1.7,0,0,1-.313-.121.74.74,0,0,1-.243-.185.391.391,0,0,1-.088-.257.485.485,0,0,1,.26-.41,1.233,1.233,0,0,1,.683-.17,1.1,1.1,0,0,1,.663.156,1.3,1.3,0,0,1,.353.437,1.143,1.143,0,0,0,.21.281.435.435,0,0,0,.284.086.478.478,0,0,0,.479-.463.844.844,0,0,0-.11-.4,1.285,1.285,0,0,0-.349-.391,1.886,1.886,0,0,0-.6-.3,2.939,2.939,0,0,0-.858-.112,3.121,3.121,0,0,0-1.08.17,1.526,1.526,0,0,0-.7.486,1.162,1.162,0,0,0-.243.723,1.114,1.114,0,0,0,.23.715,1.562,1.562,0,0,0,.621.454,5.44,5.44,0,0,0,.973.291c.286.06.519.118.694.172a1.082,1.082,0,0,1,.423.234.526.526,0,0,1,.164.4.607.607,0,0,1-.3.518,1.383,1.383,0,0,1-.79.207,1.35,1.35,0,0,1-.57-.1A.893.893,0,0,1,70,64.963a1.96,1.96,0,0,1-.223-.394.793.793,0,0,0-.2-.3.439.439,0,0,0-.292-.1.486.486,0,0,0-.35.13.412.412,0,0,0-.138.311,1.139,1.139,0,0,0,.229.644,1.7,1.7,0,0,0,.6.53,2.8,2.8,0,0,0,1.315.275,3,3,0,0,0,1.15-.2,1.653,1.653,0,0,0,.736-.558A1.364,1.364,0,0,0,73.072,64.494Z" transform="translate(-63.72 -57.575)"/>
  </g>
</svg>
