<svg xmlns="http://www.w3.org/2000/svg" viewBox="0 0 9.545 14.397">
  <g id="smartphone_1_" data-name="smartphone (1)" transform="translate(-97.35 0)">
    <g id="Group_459" data-name="Group 459" transform="translate(97.35)">
      <path id="Path_134" data-name="Path 134" d="M106.895,13.277V1.118A1.179,1.179,0,0,0,105.664,0H98.58a1.18,1.18,0,0,0-1.23,1.118V13.28A1.179,1.179,0,0,0,98.58,14.4h7.084A1.184,1.184,0,0,0,106.895,13.277ZM98.143,2.591H106.1v8.183H98.143ZM98.58.721h7.084a.419.419,0,0,1,.437.4v.753H98.143V1.118A.419.419,0,0,1,98.58.721Zm-.437,12.556V11.492H106.1v1.785a.419.419,0,0,1-.437.4H98.58A.419.419,0,0,1,98.143,13.277Z" transform="translate(-97.35)"/>
      <path id="Path_135" data-name="Path 135" d="M209.557,416.6h-1.609a.4.4,0,1,0,0,.8h1.609a.4.4,0,1,0,0-.8Z" transform="translate(-203.982 -404.563)"/>
    </g>
  </g>
</svg>
