<svg xmlns="http://www.w3.org/2000/svg" viewBox="0 0 13.914 13.285">
  <defs>
    <style>
      .cls-1 {
        fill: red;
      }
    </style>
  </defs>
  <path id="Path_65" data-name="Path 65" class="cls-1" d="M13.9,16.032a.388.388,0,0,0-.311-.263l-4.341-.617L7.29,11.225a.387.387,0,0,0-.346-.214h0a.385.385,0,0,0-.346.217L4.671,15.166.33,15.812a.388.388,0,0,0-.311.263.381.381,0,0,0,.1.394l3.15,3.053L2.54,23.845a.388.388,0,0,0,.38.451.367.367,0,0,0,.18-.046L6.975,22.2l3.887,2.03a.394.394,0,0,0,.177.043h0a.388.388,0,0,0,.386-.386.3.3,0,0,0-.011-.089l-.751-4.3,3.13-3.07A.378.378,0,0,0,13.9,16.032ZM9.983,19.09a.381.381,0,0,0-.109.343l.654,3.75L7.153,21.42a.391.391,0,0,0-.36,0L3.429,23.2l.631-3.755a.385.385,0,0,0-.111-.34l-2.73-2.65,3.767-.56a.383.383,0,0,0,.288-.211l1.674-3.418,1.7,3.41a.392.392,0,0,0,.291.211l3.77.537Z" transform="translate(0 -11.011)"/>
</svg>
