<svg xmlns="http://www.w3.org/2000/svg" viewBox="0 0 28.2 28.2">
  <defs>
    <style>
      .cls-1, .cls-2 {
        fill: #fff;
      }

      .cls-2 {
        stroke: #fff;
        stroke-miterlimit: 10;
        stroke-width: 0.75px;
      }
    </style>
  </defs>
  <g id="Group_219" data-name="Group 219" transform="translate(-10.3 -10.3)">
    <g id="Group_217" data-name="Group 217">
      <g id="Group_216" data-name="Group 216">
        <path id="Path_100" data-name="Path 100" class="cls-1" d="M24.4,10.3A14.1,14.1,0,1,0,38.5,24.4,14.084,14.084,0,0,0,24.4,10.3Zm0,26.1a12,12,0,1,1,12-12A12.035,12.035,0,0,1,24.4,36.4Z"/>
      </g>
    </g>
    <g id="Group_218" data-name="Group 218">
      <path id="Path_101" data-name="Path 101" class="cls-2" d="M31.8,22.7a.451.451,0,0,0-.3-.3l-4.6-.7-2.1-4.2a.52.52,0,0,0-.4-.2h0a.52.52,0,0,0-.4.2l-2,4.2-4.6.7a.265.265,0,0,0-.3.3.6.6,0,0,0,.1.4l3.3,3.2L19.7,31c0,.2,0,.3.2.4a.31.31,0,0,0,.2.1h.2l4.1-2.2,4.1,2.1h.2a.43.43,0,0,0,.4-.4v-.1l-.8-4.5,3.3-3.2A.646.646,0,0,0,31.8,22.7Zm-4.2,3.2c-.1.1-.1.2-.1.4l.7,4-3.6-1.9a.3.3,0,0,0-.4,0l-3.6,1.9.7-4a.6.6,0,0,0-.1-.4l-2.9-2.8,4-.6c.1,0,.2-.1.3-.2l1.8-3.6,1.8,3.6c.1.1.2.2.3.2l4,.6Z"/>
    </g>
  </g>
</svg>
