<svg xmlns="http://www.w3.org/2000/svg" viewBox="0 0 35.109 31.047">
  <defs>
    <style>
      .cls-1 {
        fill: #363636;
      }
    </style>
  </defs>
  <g id="teamwork" transform="translate(0 -28.35)">
    <g id="Group_438" data-name="Group 438" transform="translate(0 28.35)">
      <path id="Path_130" data-name="Path 130" class="cls-1" d="M178.536,230.1a2.267,2.267,0,0,0,1.512-.58l2.615,1.512a.711.711,0,0,0,.709-1.232l-2.608-1.5a2.505,2.505,0,0,0,.05-.466,2.275,2.275,0,0,0-1.562-2.157v-3.017a.709.709,0,1,0-1.419,0v3.017a2.261,2.261,0,0,0-1.576,2.15,2.017,2.017,0,0,0,.05.466l-2.608,1.5a.712.712,0,0,0,.358,1.326.679.679,0,0,0,.351-.093l2.615-1.512A2.238,2.238,0,0,0,178.536,230.1Zm0-3.131a.853.853,0,1,1-.853.853A.85.85,0,0,1,178.536,226.973Z" transform="translate(-160.924 -208.078)"/>
      <path id="Path_131" data-name="Path 131" class="cls-1" d="M161.27,43.225a.706.706,0,0,0,.709-.709V40.76a1.928,1.928,0,0,0-.709-1.5A20.779,20.779,0,0,0,157.816,37V35.221a1.858,1.858,0,0,0,.516-1.29V31.367a3.021,3.021,0,0,0-3.017-3.017h-.552a3.021,3.021,0,0,0-3.017,3.017v2.565a1.858,1.858,0,0,0,.516,1.29v1.77a21.082,21.082,0,0,0-3.454,2.257,1.939,1.939,0,0,0-.709,1.5v1.755a.709.709,0,0,0,1.419,0V40.753a.531.531,0,0,1,.193-.408,19.615,19.615,0,0,1,3.5-2.25.808.808,0,0,0,.459-.738V34.885a.711.711,0,0,0-.315-.588.459.459,0,0,1-.2-.373V31.367a1.6,1.6,0,0,1,1.6-1.6h.552a1.6,1.6,0,0,1,1.6,1.6v2.558a.441.441,0,0,1-.2.373.694.694,0,0,0-.315.588v2.472a.82.82,0,0,0,.459.738,19.794,19.794,0,0,1,3.5,2.25.531.531,0,0,1,.193.408v1.755A.734.734,0,0,0,161.27,43.225Z" transform="translate(-137.488 -28.35)"/>
      <path id="Path_132" data-name="Path 132" class="cls-1" d="M310.179,268.208v-1.755a1.928,1.928,0,0,0-.709-1.5,20.488,20.488,0,0,0-3.454-2.257v-1.777a1.858,1.858,0,0,0,.516-1.29v-2.558a3.021,3.021,0,0,0-3.017-3.017h-.552a3.021,3.021,0,0,0-3.017,3.017v2.565a1.858,1.858,0,0,0,.516,1.29V262.7a21.083,21.083,0,0,0-3.454,2.257,1.939,1.939,0,0,0-.709,1.5v1.755a.709.709,0,0,0,1.419,0V266.46a.531.531,0,0,1,.193-.408,19.615,19.615,0,0,1,3.5-2.25.835.835,0,0,0,.466-.738v-2.472a.711.711,0,0,0-.315-.588.459.459,0,0,1-.2-.373v-2.565a1.6,1.6,0,0,1,1.6-1.6h.552a1.6,1.6,0,0,1,1.6,1.6v2.558a.441.441,0,0,1-.2.373.694.694,0,0,0-.315.588v2.472a.82.82,0,0,0,.459.738,19.8,19.8,0,0,1,3.5,2.25.531.531,0,0,1,.193.408v1.755a.713.713,0,0,0,1.426,0Z" transform="translate(-275.069 -237.878)"/>
      <path id="Path_133" data-name="Path 133" class="cls-1" d="M13.162,268.918a.706.706,0,0,0,.709-.709v-1.755a1.928,1.928,0,0,0-.709-1.5,20.487,20.487,0,0,0-3.454-2.257v-1.777a1.858,1.858,0,0,0,.516-1.29v-2.558a3.021,3.021,0,0,0-3.017-3.017H6.664a3.021,3.021,0,0,0-3.017,3.017v2.565a1.858,1.858,0,0,0,.516,1.29V262.7a21.082,21.082,0,0,0-3.454,2.257A1.939,1.939,0,0,0,0,266.46v1.755a.709.709,0,0,0,1.419,0V266.46a.531.531,0,0,1,.193-.408,19.793,19.793,0,0,1,3.5-2.25.835.835,0,0,0,.466-.738v-2.472A.711.711,0,0,0,5.266,260a.459.459,0,0,1-.2-.373v-2.565a1.6,1.6,0,0,1,1.6-1.6h.552a1.6,1.6,0,0,1,1.6,1.6v2.558a.441.441,0,0,1-.2.373.694.694,0,0,0-.315.588v2.472a.82.82,0,0,0,.459.738,19.8,19.8,0,0,1,3.5,2.25.531.531,0,0,1,.193.408v1.755A.711.711,0,0,0,13.162,268.918Z" transform="translate(0 -237.878)"/>
    </g>
  </g>
</svg>
