<svg xmlns="http://www.w3.org/2000/svg" viewBox="0 0 12.734 12.782">
  <g id="telephone_1_" data-name="telephone (1)" transform="translate(0)">
    <path id="Path_25" data-name="Path 25" d="M3.492,8.5A13.561,13.561,0,0,0,8,12.03a7.02,7.02,0,0,0,2.524.747c.061,0,.119.005.18.005a2.09,2.09,0,0,0,1.621-.7.058.058,0,0,0,.011-.013,6.824,6.824,0,0,1,.511-.53c.124-.119.252-.244.373-.371a1.279,1.279,0,0,0-.005-1.9L11.626,7.676a1.288,1.288,0,0,0-.932-.429,1.332,1.332,0,0,0-.943.426L8.8,8.621c-.087-.05-.177-.1-.262-.138a3.275,3.275,0,0,1-.291-.159,10.035,10.035,0,0,1-2.4-2.182,5.779,5.779,0,0,1-.81-1.293c.249-.225.482-.461.707-.691.079-.082.162-.164.244-.246a1.358,1.358,0,0,0,.44-.954A1.347,1.347,0,0,0,5.992,2L5.2,1.216c-.093-.093-.18-.183-.27-.275C4.758.76,4.575.575,4.4.408A1.32,1.32,0,0,0,3.463,0,1.359,1.359,0,0,0,2.52.411L1.529,1.4A2.035,2.035,0,0,0,.923,2.7a4.9,4.9,0,0,0,.368,2.119A12.327,12.327,0,0,0,3.492,8.5ZM1.569,2.76a1.4,1.4,0,0,1,.421-.9L2.976.874A.713.713,0,0,1,3.463.649a.677.677,0,0,1,.477.23c.177.164.344.336.524.519l.275.281.789.789a.719.719,0,0,1,.249.5.719.719,0,0,1-.249.5l-.246.249c-.246.249-.477.485-.731.71l-.013.013a.518.518,0,0,0-.132.588l.008.021a6.233,6.233,0,0,0,.93,1.512A10.592,10.592,0,0,0,7.9,8.878a3.791,3.791,0,0,0,.35.191,3.276,3.276,0,0,1,.291.159l.029.016a.554.554,0,0,0,.257.066.562.562,0,0,0,.395-.18l.991-.991a.7.7,0,0,1,.485-.236.665.665,0,0,1,.469.236l1.6,1.594a.639.639,0,0,1-.008,1c-.111.119-.228.233-.352.352a7.628,7.628,0,0,0-.554.575,1.454,1.454,0,0,1-1.136.482c-.045,0-.093,0-.138-.005a6.378,6.378,0,0,1-2.283-.683A12.883,12.883,0,0,1,4,8.089,11.8,11.8,0,0,1,1.9,4.606,4.272,4.272,0,0,1,1.569,2.76Z" transform="translate(-0.912 0)"/>
  </g>
</svg>
