<svg xmlns="http://www.w3.org/2000/svg" viewBox="0 0 18.07 23.775">
  <defs>
    <style>
      .cls-1 {
        fill: red;
      }
    </style>
  </defs>
  <g style="fill: red;" id="Group_423" data-name="Group 423" transform="translate(0 0)">
    <path id="Path_128" data-name="Path 128" class="cls-1" d="M76.846,177.9v-9.729a3.019,3.019,0,0,0-3.013-3.013H71.882a.6.6,0,0,0,0,1.194h1.951a1.829,1.829,0,0,1,1.825,1.825v9.734a1.829,1.829,0,0,1-1.825,1.825H61.788a1.829,1.829,0,0,1-1.825-1.825v-9.739a1.829,1.829,0,0,1,1.825-1.825h1.951a.6.6,0,0,0,0-1.194H61.788a3.019,3.019,0,0,0-3.013,3.013V177.9a3.019,3.019,0,0,0,3.013,3.013H73.832A3.013,3.013,0,0,0,76.846,177.9Z" transform="translate(-58.775 -157.136)"/>
    <path id="Path_129" data-name="Path 129" class="cls-1" d="M149.073,5.073a.592.592,0,0,0,.839,0l3.057-3.057V13.167a.6.6,0,1,0,1.194,0V2.021l3.057,3.057a.6.6,0,1,0,.844-.839L153.994.167a.61.61,0,0,0-.839,0l-4.071,4.071A.577.577,0,0,0,149.073,5.073Z" transform="translate(-144.526 0)"/>
  </g>
</svg>
