<svg xmlns="http://www.w3.org/2000/svg" viewBox="0 0 30.452 27">
  <g id="_042-chat-bubble" data-name="042-chat-bubble" transform="translate(0 -29.021)">
    <g id="Group_19" data-name="Group 19" transform="translate(2.883 34.002)">
      <g id="Group_18" data-name="Group 18">
        <path id="Path_1" data-name="Path 1" d="M49.83,112.775a1.35,1.35,0,1,0,1.35,1.35A1.351,1.351,0,0,0,49.83,112.775Zm0,1.808a.458.458,0,1,1,.458-.458A.458.458,0,0,1,49.83,114.583Z" transform="translate(-48.48 -112.775)"/>
      </g>
    </g>
    <g id="Group_21" data-name="Group 21" transform="translate(6.614 34.002)">
      <g id="Group_20" data-name="Group 20">
        <path id="Path_2" data-name="Path 2" d="M112.545,112.775a1.35,1.35,0,1,0,1.35,1.35A1.351,1.351,0,0,0,112.545,112.775Zm0,1.808a.458.458,0,1,1,.458-.458A.458.458,0,0,1,112.545,114.583Z" transform="translate(-111.195 -112.775)"/>
      </g>
    </g>
    <g id="Group_23" data-name="Group 23" transform="translate(10.344 34.002)">
      <g id="Group_22" data-name="Group 22">
        <path id="Path_3" data-name="Path 3" d="M175.26,112.775a1.35,1.35,0,1,0,1.35,1.35A1.351,1.351,0,0,0,175.26,112.775Zm0,1.808a.458.458,0,1,1,.458-.458A.458.458,0,0,1,175.26,114.583Z" transform="translate(-173.91 -112.775)"/>
      </g>
    </g>
    <g id="Group_25" data-name="Group 25" transform="translate(10.344 47.112)">
      <g id="Group_24" data-name="Group 24">
        <path id="Path_4" data-name="Path 4" d="M190.59,333.182H174.355a.446.446,0,1,0,0,.892H190.59a.446.446,0,1,0,0-.892Z" transform="translate(-173.909 -333.182)"/>
      </g>
    </g>
    <g id="Group_27" data-name="Group 27" transform="translate(0 29.021)">
      <g id="Group_26" data-name="Group 26">
        <path id="Path_5" data-name="Path 5" d="M30.006,42.026a.446.446,0,0,0,.446-.446V35.227A1.653,1.653,0,0,0,28.8,33.576H16.144V30.3a1.284,1.284,0,0,0-1.282-1.282H9a.446.446,0,0,0,0,.892h5.858a.391.391,0,0,1,.39.39v9.976a.391.391,0,0,1-.39.39H13.691a.7.7,0,0,0-.7.7v2.249l-2.258-2.6a1,1,0,0,0-.754-.344h-8.7a.391.391,0,0,1-.39-.39V30.3a.391.391,0,0,1,.39-.39h5.64a.446.446,0,0,0,0-.892H1.282A1.284,1.284,0,0,0,0,30.3v9.976a1.284,1.284,0,0,0,1.282,1.282H7.587V49.6a1.653,1.653,0,0,0,1.651,1.651h1.6v4a.775.775,0,0,0,1.36.508L16,51.369a.349.349,0,0,1,.264-.12H28.8A1.653,1.653,0,0,0,30.452,49.6V43.661a.446.446,0,0,0-.892,0V49.6a.759.759,0,0,1-.759.759H16.268a1.241,1.241,0,0,0-.938.428l-3.6,4.147V51.164a.809.809,0,0,0-.808-.808H9.238A.759.759,0,0,1,8.48,49.6V41.561h1.5a.106.106,0,0,1,.08.037l.523.6a.446.446,0,0,0,.2.842h.526l1.378,1.588h-1.9a.446.446,0,1,0,0,.892H27.025a.446.446,0,0,0,0-.892H13.731a.672.672,0,0,0,.156-.432V43.043H27.025a.446.446,0,0,0,0-.892H13.886v-.589h.976a1.283,1.283,0,0,0,1.25-1H27.025a.446.446,0,0,0,0-.892H16.144V38.082h10.88a.446.446,0,0,0,0-.892H16.144V34.468H28.8a.759.759,0,0,1,.759.759V41.58A.446.446,0,0,0,30.006,42.026Z" transform="translate(0 -29.021)"/>
      </g>
    </g>
  </g>
</svg>
