<svg xmlns="http://www.w3.org/2000/svg" viewBox="0 0 48.83 48.83"><defs><style>.cls-1{fill:#e22127;}.cls-2{fill:#d6d6d6;opacity:0.46;}.cls-3{fill:#fff;}</style></defs><title>ic-dola</title><g id="Layer_2" data-name="Layer 2"><g id="Layer_1-2" data-name="Layer 1"><circle class="cls-1" cx="24.41" cy="24.42" r="20.12"/><path class="cls-2" d="M24.41,48.83A24.42,24.42,0,1,1,48.83,24.42,24.44,24.44,0,0,1,24.41,48.83Zm0-44.41a20,20,0,1,0,20,20A20,20,0,0,0,24.41,4.42Z"/><path class="cls-3" d="M27.93,25.35a3.08,3.08,0,0,0-1-1.16,10.08,10.08,0,0,0-1.29-.74,13.53,13.53,0,0,0-1.29-.57,3.21,3.21,0,0,1-1-.59,1.13,1.13,0,0,1,.09-1.79,2.52,2.52,0,0,1,1.4-.34,3.49,3.49,0,0,1,1.49.32,3.2,3.2,0,0,0,.81.32.73.73,0,0,0,.64-.4,1.58,1.58,0,0,0,.23-.77.89.89,0,0,0-.34-.69,2.31,2.31,0,0,0-.89-.43,8.58,8.58,0,0,0-1-.19l-.23,0V16.52a1.09,1.09,0,1,0-2.17,0v1.92a4.73,4.73,0,0,0-1.26.55,2.85,2.85,0,0,0-1,1.07,3.39,3.39,0,0,0-.36,1.59,3.29,3.29,0,0,0,.29,1.43,2.6,2.6,0,0,0,.77,1,7,7,0,0,0,1.05.68c.38.2.77.38,1.15.54s.72.33,1,.5a2.47,2.47,0,0,1,.77.65,1.51,1.51,0,0,1,.29.9,1.26,1.26,0,0,1-.53,1.09,2.37,2.37,0,0,1-1.34.36,2.65,2.65,0,0,1-1.07-.21,2.24,2.24,0,0,1-.74-.46c-.18-.16-.36-.32-.54-.46a.89.89,0,0,0-.49-.2.81.81,0,0,0-.66.39,1.26,1.26,0,0,0-.29.78c0,.51.37,1,1.13,1.42a5.09,5.09,0,0,0,1.75.58v1.67a1.09,1.09,0,1,0,2.17,0V30.59a4,4,0,0,0,1.69-.81,3.29,3.29,0,0,0,1.09-2.65A3.74,3.74,0,0,0,27.93,25.35Z"/><path class="cls-3" d="M24.41,10.28A14.14,14.14,0,1,0,38.55,24.42,14.15,14.15,0,0,0,24.41,10.28Zm0,26.1a12,12,0,1,1,12-12A12,12,0,0,1,24.41,36.38Z"/></g></g></svg>