<svg xmlns="http://www.w3.org/2000/svg" viewBox="0 0 26.727 24.787">
  <g id="email_3_" data-name="email (3)" transform="translate(0 -16.43)">
    <path id="Path_44" data-name="Path 44" d="M26.528,26.7h0l-3.413-2.263V16.873a.443.443,0,0,0-.443-.443H4.053a.443.443,0,0,0-.443.443v7.563L.2,26.7h0a.442.442,0,0,0-.2.369V40.774a.443.443,0,0,0,.443.443H26.284a.443.443,0,0,0,.443-.443V27.067A.442.442,0,0,0,26.528,26.7ZM3.61,28.246l-1.388-.737H3.61ZM.885,27.8l10.179,5.4L.885,39.95Zm12.478,4.938,11.452,7.591H1.911l11.452-7.591Zm2.3.462,10.18-5.4V39.95L15.662,33.2Zm7.454-5.693H24.5l-1.389.737Zm1.7-.885h-1.7V25.5ZM22.23,17.315v11.4l-7.409,3.93-1.214-.8a.443.443,0,0,0-.489,0l-1.214.8L4.5,28.715v-11.4H22.23ZM3.61,26.624h-1.7L3.61,25.5Z" transform="translate(0)"/>
    <path id="Path_45" data-name="Path 45" d="M163.13,85.018h3.527a.443.443,0,0,0,0-.885H163.13a3.088,3.088,0,0,1-3.084-3.084v-.131a3.084,3.084,0,0,1,6.168,0v.327a.668.668,0,0,1-1.335,0v-.62a1.915,1.915,0,1,0-.653,1.437,1.552,1.552,0,0,0,2.873-.816v-.327a3.969,3.969,0,1,0-7.939,0v.131A3.974,3.974,0,0,0,163.13,85.018Zm-.163-3.367a1.027,1.027,0,1,1,1.027-1.027A1.028,1.028,0,0,1,162.967,81.651Z" transform="translate(-149.767 -56.947)"/>
  </g>
</svg>
