<svg id="Group_144" data-name="Group 144" xmlns="http://www.w3.org/2000/svg" viewBox="0 0 16.957 12">
  <defs>
    <style>
      .cls-1 {
        fill: #1a1a1a;
      }
    </style>
  </defs>
  <path id="Path_11" data-name="Path 11" class="cls-1" d="M16.109,59.733H.848A.817.817,0,0,0,0,60.516V70.95a.817.817,0,0,0,.848.783H16.109a.817.817,0,0,0,.848-.783V60.516A.817.817,0,0,0,16.109,59.733Zm.283,11.217a.272.272,0,0,1-.283.261H.848a.272.272,0,0,1-.283-.261V60.516a.272.272,0,0,1,.283-.261H16.109a.272.272,0,0,1,.283.261V70.95Z" transform="translate(0 -59.733)"/>
  <path id="Path_12" data-name="Path 12" class="cls-1" d="M48.761,93.866a.307.307,0,0,0-.209.06l-6.606,5.008a.621.621,0,0,1-.737,0L34.6,93.926a.311.311,0,0,0-.282-.045.267.267,0,0,0-.184.2.245.245,0,0,0,.1.243l6.606,5.007a1.24,1.24,0,0,0,1.473,0l6.606-5.007a.251.251,0,0,0,.1-.175.242.242,0,0,0-.066-.189A.3.3,0,0,0,48.761,93.866Z" transform="translate(-33.099 -92.831)"/>
  <path id="Path_13" data-name="Path 13" class="cls-1" d="M37.94,272.931a.258.258,0,0,0-.249.08l-3.618,3.876a.258.258,0,1,0,.378.352l3.618-3.876a.258.258,0,0,0-.129-.433Z" transform="translate(-32.97 -266.356)"/>
  <path id="Path_14" data-name="Path 14" class="cls-1" d="M341.652,273.011a.258.258,0,1,0-.378.352l3.618,3.876a.258.258,0,0,0,.378-.352Z" transform="translate(-329.417 -266.356)"/>
</svg>
