<svg id="phone-call" xmlns="http://www.w3.org/2000/svg" viewBox="0 0 14 14">
  <defs>
    <style>
      .cls-1 {
        fill: #363636;
      }
    </style>
  </defs>
  <path id="Path_10" data-name="Path 10" class="cls-1" d="M13.991,11.522a1.074,1.074,0,0,0-.533-.8L10,8.738a1.084,1.084,0,0,0-1.3.173l-.68.68a.5.5,0,0,1-.666.037A19.662,19.662,0,0,1,5.784,8.217,19.669,19.669,0,0,1,4.372,6.647a.5.5,0,0,1,.037-.666l.68-.68A1.084,1.084,0,0,0,5.262,4L3.274.542a1.082,1.082,0,0,0-1.7-.225L.546,1.342C-.17,2.057-.181,3.366.513,5.027a16.275,16.275,0,0,0,3.509,4.95,16.275,16.275,0,0,0,4.95,3.509A5.773,5.773,0,0,0,11.141,14a2.068,2.068,0,0,0,1.517-.545l1.025-1.025A1.074,1.074,0,0,0,13.991,11.522ZM9.778,9.131l3.454,1.989a.628.628,0,0,1,.192.918l-4.59-2.62.186-.186a.63.63,0,0,1,.758-.1ZM2.418.459a.624.624,0,0,1,.462.309L4.869,4.222a.629.629,0,0,1-.1.758L4.6,5.151,1.964.576A.621.621,0,0,1,2.334.453a.64.64,0,0,1,.084.006Zm9.919,12.675c-.568.568-1.731.545-3.189-.065a15.817,15.817,0,0,1-4.8-3.412,15.817,15.817,0,0,1-3.412-4.8C.322,3.393.3,2.231.867,1.662L1.628.9,4.266,5.483l-.177.177a.952.952,0,0,0-.07,1.271A20.122,20.122,0,0,0,5.463,8.537,20.133,20.133,0,0,0,7.069,9.982a.951.951,0,0,0,1.271-.07L8.5,9.75l4.6,2.623Z" transform="translate(-0.001 0)"/>
</svg>
