<svg id="question" xmlns="http://www.w3.org/2000/svg" viewBox="0 0 27 27">
  <defs>
    <style>
      .cls-1 {
        fill: #363636;
      }
    </style>
  </defs>
  <path id="Path_6" data-name="Path 6" class="cls-1" d="M22.781,0H4.219A4.224,4.224,0,0,0,0,4.219V22.781A4.224,4.224,0,0,0,4.219,27H22.781A4.224,4.224,0,0,0,27,22.781V4.219A4.224,4.224,0,0,0,22.781,0Zm2.531,22.781a2.531,2.531,0,0,1-2.531,2.531H4.219a2.531,2.531,0,0,1-2.531-2.531V4.219A2.531,2.531,0,0,1,4.219,1.688H22.781a2.531,2.531,0,0,1,2.531,2.531Zm0,0"/>
  <path id="Path_7" data-name="Path 7" class="cls-1" d="M165.063,96A5.068,5.068,0,0,0,160,101.062h1.688a3.377,3.377,0,1,1,4.346,3.233,2.518,2.518,0,0,0-1.815,2.42V109.5h1.688v-2.784a.844.844,0,0,1,.612-.8A5.063,5.063,0,0,0,165.063,96Zm0,0" transform="translate(-151.563 -90.937)"/>
  <path id="Path_8" data-name="Path 8" class="cls-1" d="M240,384h1.688v1.688H240Zm0,0" transform="translate(-227.344 -363.75)"/>
</svg>
