<svg xmlns="http://www.w3.org/2000/svg" viewBox="0 0 115 115"><defs><style>.cls-1{fill:#ff0000}</style></defs><title>ic-dang-ky</title><g id="Layer_2" data-name="Layer 2"><path class="cls-1" d="M108.81 6.19A21.11 21.11 0 0 0 79 6.18L15.43 69.33a3.59 3.59 0 0 0-.84 1.32L.22 110.18A3.59 3.59 0 0 0 3.6 115a3.48 3.48 0 0 0 1.05-.16l35.75-11a3.35 3.35 0 0 0 1.49-.89l66.92-66.92a21.11 21.11 0 0 0 0-29.87zM36.27 97.63l-13.38 4.11a15.48 15.48 0 0 0-3.65-6 19.65 19.65 0 0 0-4.88-3.45l6.13-16.84h8.26v7.19a3.6 3.6 0 0 0 3.6 3.59h6.34zm52.9-52.09L45.39 89.32l1.25-5.92a3.6 3.6 0 0 0-3.51-4.34h-7.19v-7.18a3.6 3.6 0 0 0-3.59-3.6h-5.67l42.74-42.49a13.94 13.94 0 1 1 19.75 19.75zM103.73 31l-3.35 3.36a21 21 0 0 0-19.73-19.74L84 11.28A13.93 13.93 0 1 1 103.73 31zm-23.61-1.2L44.18 65.74a3.59 3.59 0 1 0 5.08 5.08L85.2 34.88a3.59 3.59 0 0 0-5.08-5.08z" id="Layer_1-2" data-name="Layer 1"/></g></svg>